Coordinates
version=1
nRows=14
nColumns=40
inDegrees=yes

Units are S.I. units (second, meters, Newtons, ...)
Angles are in degrees.

endheader
time	pelvis_tilt	pelvis_list	pelvis_rotation	pelvis_tx	pelvis_ty	pelvis_tz	hip_flexion_r	hip_adduction_r	hip_rotation_r	knee_angle_r	knee_angle_r_beta	ankle_angle_r	subtalar_angle_r	mtp_angle_r	hip_flexion_l	hip_adduction_l	hip_rotation_l	knee_angle_l	knee_angle_l_beta	ankle_angle_l	subtalar_angle_l	mtp_angle_l	lumbar_extension	lumbar_bending	lumbar_rotation	arm_flex_r	arm_add_r	arm_rot_r	elbow_flex_r	pro_sup_r	wrist_flex_r	wrist_dev_r	arm_flex_l	arm_add_l	arm_rot_l	elbow_flex_l	pro_sup_l	wrist_flex_l	wrist_dev_l
      0.64000000	      3.20634022	     -2.59792012	     -3.06864246	     -0.63143103	      0.89547486	     -1.17201033	     -6.66759602	      5.19760133	    -14.73935824	    -17.01177278	     -0.29691145	     12.24604446	      5.13176267	     -3.67627381	     21.13568038	      4.59650970	      7.97719100	    -35.38444491	     -0.61757507	      3.73302538	      3.34818183	    -11.13829831	    -10.74811544	      3.39560941	      6.51919845	     17.96680425	    -13.83492508	     19.59788242	     22.60601271	     89.95437384	      0.00000000	      0.00000000	     -1.47812983	      9.81265588	     -7.57297540	     18.17159785	     89.95437384	      0.00000000	      0.00000000
      0.65000000	      2.78755757	     -2.68892402	     -3.22313216	     -0.62339818	      0.89416225	     -1.17221880	     -6.82673565	      5.22989980	    -14.55352808	    -16.96459674	     -0.29608807	     12.29984686	      5.36838853	     -3.77256749	     21.80093751	      4.46547491	      7.82069638	    -32.80022507	     -0.57247192	      2.56522155	      2.49345533	    -10.88934607	    -10.40679983	      3.49690846	      6.71735272	     18.31629679	    -13.93417855	     19.69065374	     23.09186741	     89.95437384	      0.00000000	      0.00000000	     -1.83733471	      9.71456427	     -7.25093559	     18.40700578	     89.95437384	      0.00000000	      0.00000000
      0.66000000	      3.13629225	     -2.47349702	     -3.59971479	     -0.61478407	      0.89401440	     -1.17210565	     -7.85973981	      4.75008699	    -14.67756532	    -16.90412641	     -0.29503266	     12.55295473	      6.26347173	     -4.28280961	     21.46113122	      4.41300365	      9.38998004	    -30.19673634	     -0.52703247	      0.57815942	      0.27708236	    -10.73795292	    -10.91480413	      3.16213243	      6.92268962	     18.82038217	    -13.95749644	     20.29014082	     23.61477676	     89.95437384	      0.00000000	      0.00000000	     -2.09754407	      9.46327153	     -5.82517312	     18.38464982	     89.95437384	      0.00000000	      0.00000000
      0.67000000	      2.64998687	     -2.80128722	     -3.58684562	     -0.60660750	      0.89233907	     -1.17234936	     -7.95422605	      5.06976439	    -14.76170483	    -16.89185167	     -0.29481843	     12.62982604	      6.35519636	     -4.33777025	     22.31866337	      4.65851184	      9.80619668	    -28.17258168	     -0.49170431	      0.09685792	      0.00993247	    -10.53792612	    -10.49430174	      3.54445914	      6.89231692	     19.16108938	    -13.93008136	     20.32485368	     23.98400163	     89.95437384	      0.00000000	      0.00000000	     -2.44922044	      9.32867969	     -5.80454557	     18.37623671	     89.95437384	      0.00000000	      0.00000000
      0.68000000	      2.67746105	     -2.55204679	     -3.96348380	     -0.59812007	      0.89165110	     -1.17245131	     -8.45965962	      4.56452717	    -14.66301011	    -17.13765841	     -0.29910857	     12.72620933	      7.02050151	     -4.89184029	     22.17024102	      4.45400113	     11.08423784	    -25.50763861	     -0.44519228	     -1.95561936	     -2.21460038	    -10.25910067	    -10.65689599	      3.21580064	      7.14697510	     19.49922378	    -13.99098117	     20.86136481	     24.51968740	     89.95437384	      0.00000000	      0.00000000	     -2.69496479	      9.16357381	     -5.15101030	     18.39644053	     89.95437384	      0.00000000	      0.00000000
      0.69000000	      2.21494923	     -2.70018599	     -4.07213220	     -0.58988724	      0.89008198	     -1.17278177	     -8.46847946	      4.64031176	    -14.52619065	    -17.28440101	     -0.30166971	     12.73491010	      7.10684179	     -4.99930354	     22.75828078	      4.48408902	     11.52032118	    -23.39974723	     -0.40840263	     -2.40851450	     -2.74759791	    -10.08307634	    -10.28681719	      3.38854797	      7.23934726	     19.74166802	    -13.98403152	     20.96228142	     24.89918764	     89.95437384	      0.00000000	      0.00000000	     -2.94180245	      8.99210812	     -5.10585337	     18.35793318	     89.95437384	      0.00000000	      0.00000000
      0.70000000	      2.21645340	     -2.49095758	     -4.36870031	     -0.58113273	      0.88922599	     -1.17313081	     -8.91344496	      4.17577120	    -14.42408890	    -17.64086081	     -0.30789110	     12.89445898	      7.45848830	     -5.35762442	     22.57444528	      4.24846347	     12.99704721	    -21.15320236	     -0.36919303	     -3.10072900	     -3.60170012	     -9.85474737	    -10.38364013	      3.12794088	      7.39102396	     20.00022633	    -13.96547407	     21.28023722	     25.32055552	     89.95437384	      0.00000000	      0.00000000	     -3.08443918	      8.79715063	     -4.69768396	     18.09944398	     89.95437384	      0.00000000	      0.00000000
      0.71000000	      2.00968983	     -2.46843947	     -4.63138004	     -0.57251352	      0.88802618	     -1.17342273	     -9.12081538	      3.95346036	    -14.25928917	    -17.97929448	     -0.31379789	     12.95810482	      7.63195805	     -5.65919073	     22.68970184	      4.18536238	     14.16789474	    -19.28069398	     -0.33651159	     -3.10939942	     -3.91628657	     -9.64503428	    -10.28850918	      3.09358924	      7.52789420	     20.20875525	    -13.92438765	     21.53920089	     25.71129182	     89.95437384	      0.00000000	      0.00000000	     -3.25450236	      8.60264805	     -4.51678147	     17.91532243	     89.95437384	      0.00000000	      0.00000000
      0.72000000	      1.85252904	     -2.40266197	     -4.90080550	     -0.56367945	      0.88693864	     -1.17376843	     -9.36180370	      3.65710246	    -14.08096520	    -18.36981404	     -0.32061374	     12.95363370	      7.82302439	     -5.95669707	     22.70584633	      4.04010219	     15.14094032	    -17.59041692	     -0.30701069	     -3.06743806	     -3.86719790	     -9.38393567	    -10.22514797	      2.99681191	      7.61571812	     20.36970721	    -13.83196665	     21.75709017	     26.08234863	     89.95437384	      0.00000000	      0.00000000	     -3.37584928	      8.35341878	     -4.10104600	     17.61793678	     89.95437384	      0.00000000	      0.00000000
      0.73000000	      1.55859307	     -2.61409444	     -4.80131048	     -0.55489940	      0.88553544	     -1.17427522	     -9.57427338	      3.81481545	    -14.09300139	    -18.53937980	     -0.32357322	     12.92923557	      7.77258470	     -5.95651259	     23.20328043	      4.18635528	     15.73815563	    -16.73999953	     -0.29216811	     -2.75226778	     -3.73177941	     -9.29613951	    -10.04417463	      3.24488844	      7.28183286	     20.55434268	    -13.61609526	     21.76491285	     26.37199619	     89.95437384	      0.00000000	      0.00000000	     -3.57637682	      8.22417538	     -4.14922058	     17.39666672	     89.95437384	      0.00000000	      0.00000000
      0.74000000	      1.37065443	     -2.49010573	     -5.32192897	     -0.54572810	      0.88455319	     -1.17447854	     -9.65779604	      3.40582859	    -13.43347147	    -19.16586498	     -0.33450745	     12.59182034	      7.80730199	     -6.05154480	     22.88482351	      3.95009419	     16.33210764	    -15.02962788	     -0.26231649	     -2.33072724	     -3.65956461	     -9.17715096	     -9.89930886	      3.06922943	      7.70083635	     20.55404901	    -13.56101129	     21.99390283	     26.55582091	     89.95437384	      0.00000000	      0.00000000	     -3.61188917	      7.96634855	     -4.21665792	     16.92497073	     89.95437384	      0.00000000	      0.00000000
      0.75000000	      1.44440551	     -2.25701221	     -5.67399570	     -0.53618700	      0.88394746	     -1.17495328	    -10.06359473	      2.86003287	    -12.99387195	    -19.74938597	     -0.34469181	     12.47945324	      7.79461859	     -6.22308296	     22.40836960	      3.56757001	     16.86552876	    -13.86922510	     -0.24206364	     -2.01388025	     -3.10176521	     -8.97145517	    -10.03864923	      2.76909040	      7.84258378	     20.51834031	    -13.46783169	     22.15609640	     26.94138777	     89.95437384	      0.00000000	      0.00000000	     -3.61724148	      7.73930869	     -4.03990246	     16.49195183	     89.95437384	      0.00000000	      0.00000000
      0.76000000	      1.20209820	     -2.37761841	     -5.67659224	     -0.52661591	      0.88278573	     -1.17554624	    -10.25367949	      2.84741275	    -12.84402280	    -20.13198480	     -0.35136942	     12.31318669	      7.69240239	     -6.20060848	     22.54492053	      3.58420071	     17.07171143	    -13.51464074	     -0.23587498	     -1.71090029	     -2.96474098	     -8.87434718	     -9.83710221	      2.92001954	      7.59066622	     20.46003744	    -13.24956633	     22.16135705	     27.19092841	     89.95437384	      0.00000000	      0.00000000	     -3.80791228	      7.58252410	     -4.07360864	     16.29492213	     89.95437384	      0.00000000	      0.00000000
      0.77000000	      1.06781773	     -2.34284259	     -6.08968605	     -0.51677986	      0.88194710	     -1.17572487	    -10.36412551	      2.54689208	    -12.24796405	    -20.85218805	     -0.36393934	     11.85050660	      7.59775053	     -6.21468259	     22.21516583	      3.46769100	     16.96445849	    -12.99481744	     -0.22680235	     -1.19654935	     -2.93982416	     -8.82712340	     -9.71110623	      2.83349221	      7.79109510	     20.30540689	    -13.09296773	     22.27428327	     27.37332205	     89.95437384	      0.00000000	      0.00000000	     -3.79259989	      7.35419028	     -4.07703953	     15.73336792	     89.95437384	      0.00000000	      0.00000000
